<?xml version="1.0"?>
<svg width="640" height="480" xmlns="http://www.w3.org/2000/svg" xmlns:svg="http://www.w3.org/2000/svg">
 <!-- Created with SVG-edit - https://github.com/SVG-Edit/svgedit-->
 <g class="layer">
  <title>Layer 1</title>
  <path d="m20,237c1.83,0 2.66,0 3.58,0c0.59,0 1.94,0 2.67,0c0.75,0 1.49,0 2.58,0c1.02,0 1.69,0 2.38,0c1.12,0 1.96,0 2.88,0c0.49,0 1.53,0 2.08,0c1.77,0 2.39,0 3.02,0c1.26,0 1.88,0 2.48,0c1.65,0 2.13,0 3,0c0.78,0 1.89,0 3.06,0c0.43,0 1.33,0 2.28,0c0.49,0 1.98,0 2.98,0c0.49,0 1.46,0 2.39,0c1.28,0 2.05,0 2.77,0c0.73,0 1.49,0 2.8,0c0.49,0 1.53,0 2.08,0c1.11,0 1.68,0 3.34,0c0.53,0 1.57,0 2.08,0c0.98,0 2.38,0 3.26,0c0.43,0 1.26,0 2.08,0c1.2,0 2.01,0 2.82,0c0.83,0 1.67,0 3.01,0c0.94,0 1.43,0 2.43,-0.04c0.52,-0.02 2.12,-0.13 2.68,-0.19c1.15,-0.12 1.74,-0.21 2.34,-0.3c0.62,-0.09 1.91,-0.28 3.27,-0.48c0.71,-0.1 1.43,-0.2 2.17,-0.3c0.74,-0.1 1.48,-0.19 2.21,-0.27c0.72,-0.08 2.79,-0.27 3.42,-0.31c0.61,-0.04 1.76,-0.09 2.3,-0.1c1.05,-0.02 1.56,-0.02 3.06,-0.02c0.5,0 1.52,0 2.57,0c0.54,0 1.1,0 2.87,0c0.63,0 1.27,0 1.93,0c1.35,0 2.04,0 2.73,0c1.4,0 2.1,0 2.79,0c0.69,0 2.04,0 2.7,0c0.64,0 2.41,0 2.94,0c1.01,0 1.51,0 2.51,0c0.52,0 2.29,0 2.96,0c0.71,0 1.46,0 2.23,0c0.78,0 1.57,0 2.36,0c0.77,0 2.24,0 3.57,0c0.62,0 1.23,0 2.4,0c0.59,0 1.19,0 2.43,0c1.35,0 2.05,0 2.77,-0.01c0.71,-0.01 1.42,-0.02 2.12,-0.05c0.68,-0.02 2.53,-0.16 3.07,-0.23c1,-0.13 1.9,-0.3 2.74,-0.43c1.2,-0.18 2,-0.24 2.81,-0.26c0.8,-0.03 2,-0.02 2.81,-0.02c0.85,0 1.3,0 2.28,0c0.54,0 1.75,0 3.14,0c0.76,0 1.54,0 2.36,0c0.83,0 1.68,0 2.54,0c1.71,0 2.56,0 3.39,0c0.82,0 1.63,0 2.43,0c0.78,0 1.54,0 2.29,0c1.44,0 2.13,0 2.8,0c0.66,0 1.32,0 2.62,0c0.65,0 1.32,0 2.68,0c0.71,0 1.44,0 2.18,0c0.75,0 1.51,0 3.04,0c0.77,0 2.28,0 3.03,0c0.74,0 1.47,0 2.21,0c0.74,0 1.48,0 2.22,0c0.76,0 2.32,0 3.13,0c0.83,0 1.66,0 2.51,0c0.85,0 1.7,0 2.54,0c0.84,0 2.47,0 3.26,0c0.77,0 1.53,0 2.27,0c0.73,0 1.45,0 2.16,0c2.11,0 2.81,0 3.51,0c0.7,0 1.4,0 2.1,0c0.7,0 2.1,0 3.5,0c0.7,0 1.4,0 2.1,0c0.71,0 1.42,0 2.13,0c1.45,0 2.93,0 3.69,0c0.76,0 1.53,0 2.29,0c0.76,0 1.52,0 2.28,0c0.74,0 2.18,0 2.87,0c1.32,0 1.96,0 2.58,0c1.2,0 1.77,0 2.9,0c1.08,0 1.61,0 2.63,0c0.98,0 1.46,0 2.82,0c0.89,0 1.82,0 2.33,0c1.11,0 2.39,0 3.12,0c0.78,0 1.6,0 2.45,0c0.87,0 1.75,0 2.63,0c0.87,0 2.54,0 3.32,0c0.75,0 1.47,0 2.17,0.01c0.69,0.01 1.38,0.02 2.07,0.05c0.7,0.02 2.15,0.11 2.91,0.16c0.79,0.06 1.59,0.13 2.41,0.2c0.82,0.07 1.65,0.15 2.47,0.22c0.81,0.07 2.36,0.19 3.09,0.23c1.39,0.07 2.05,0.09 2.68,0.1c1.21,0.02 1.79,0.02 2.92,0.02c1.09,0 1.65,0 2.83,0c0.65,0 1.34,0 2.1,0c1.73,0 2.73,0 3.79,0c1.12,0 2.28,0 3.46,0c1.19,0 2.36,0 3.51,0c2.14,0 3.1,0 3.99,0c0.83,0 1.6,0 2.34,0c0.7,0 1.37,0 2.02,0c1.29,0 1.95,0 2.61,0c0.67,0 1.33,0 2,0c0.66,0 1.31,0 1.95,0c1.24,0 1.83,0 2.4,0c0.55,0 1.09,0 1.61,0.02c1,0.03 1.48,0.03 2.84,0.2c0.89,0.11 1.8,0.28 2.29,0.35c1.05,0.15 2.26,0.26 2.94,0.3c0.71,0.04 1.46,0.07 2.23,0.09c0.78,0.02 1.57,0.03 2.36,0.03c0.77,0 2.92,0 3.56,0c0.61,0 1.74,0 2.26,0c0.99,0 2.36,0 2.8,0c0.89,0 1.81,0 2.3,0c1.64,0 2.26,0 2.91,0c0.68,0 2.1,0 2.83,0c0.73,0 1.46,0 2.9,0c0.69,0 1.36,0 2.66,0c0.63,0 1.25,0 1.86,0c1.81,0 2.41,0 3.01,0c1.21,0 1.82,0 2.43,0c1.25,0 2.53,0 3.19,0c0.67,0 1.34,0 2.74,0c0.72,0 1.46,0 2.21,0c1.56,0 2.37,0 3.2,0c0.84,0 1.69,0 2.55,0c0.86,0 1.73,0 2.6,0c1.72,0 2.56,0 3.4,0c0.84,0 1.68,0 2.52,0c0.86,0 1.73,0 2.61,0c1.85,0 2.81,0 3.8,0c1.01,0 2.02,0 3.05,0c1.02,0 2.04,0 3.05,0c1.95,0 2.89,0 3.79,0c0.88,0 1.73,0 2.55,0c0.8,0 1.58,0 2.33,0c1.44,0 2.13,0 2.81,0c0.66,0 1.32,0 1.97,0c0.65,0 1.31,0 1.97,0c1.37,0 2.08,0 2.81,0c0.75,0 1.53,0 2.33,0c0.83,0 1.68,0 2.55,0c1.84,0 2.81,0 3.79,0c1,0 2.01,0 3.03,0c1.01,0 2.01,0 2.98,0c1.87,0 2.75,0 3.59,0c0.81,0 1.59,0 2.34,0c0.73,0 1.43,0 2.11,0c1.32,0 1.97,0 2.61,0c0.64,0 1.28,0 1.92,0c0.66,0 1.33,0 2.01,0c1.45,0 2.21,0 3,0c0.82,0 1.65,0 2.51,0c0.87,0 1.75,0 2.64,0c1.8,0 2.7,0 3.6,0c0.91,0 1.83,0 2.76,0c0.95,0 1.91,0 2.89,0c2.04,0 3.11,0 4.19,0c1.1,0 2.21,0 3.31,0c1.09,0 2.17,0 3.22,0c1.99,0 2.92,0 3.79,0c0.84,0 1.64,0 2.4,0c0.74,0 1.45,0 2.13,0c1.33,0 1.97,0 2.61,0c0.63,0 1.26,0 1.88,0c0.63,0 1.25,0 1.88,0c1.28,0 1.94,0 2.61,0c0.68,0 1.39,0 2.11,0c0.75,0 1.53,0 2.34,0c1.72,0 2.64,0 3.59,0c0.97,0 1.94,0 2.91,0c0.95,0 1.88,0 2.77,0c1.63,0 2.34,0 3,0c0.61,0 1.17,0 1.71,0c0.52,0 1.02,0 1.53,0c1.05,0 1.62,0 2.2,0c0.6,0 1.21,0 1.83,0c0.61,0 1.21,0 1.78,0c1.07,0 1.55,0 2,0c0.43,0 1.26,0 2.1,0c1.47,0 2.04,0 2.65,0c0.65,0 2,0 2.69,0c0.68,0 1.36,0 2.62,0c1.13,0 2.12,0 2.58,0c0.87,0 2.08,0 2.88,0c0.8,0 1.6,0 2.4,0c1.2,0 1.99,0 3.09,0c0.65,0 1.84,0 2.71,0c0.8,0 1.76,0 2.66,0c0.8,0 1.76,0 2.57,0c0.87,0 1.76,0 2.66,0c0.87,0 1.94,0 2.64,0c0.8,0 1.86,0 2.52,0c1,0 1.92,0 2.81,0c1.01,0 1.85,0 2.65,0c0.96,0 1.89,0 2.8,0c0.74,0 1.45,0 2.65,0c0.71,0 1.49,0 2.32,0c1.33,0 2.25,0 2.71,0c0.87,0 1.67,0 2.87,0c0.94,0 1.84,0 2.78,0c0.85,0 1.71,0 2.61,0c0.96,0 1.86,0 2.76,0c0.8,0 1.7,0 2.64,0c0.85,0 1.71,0 2.61,0c0.96,0 1.86,0 2.76,0c0.92,0 1.65,0 2.65,0c0.69,0 1.71,0 2.65,0c0.86,0 1.74,0 2.38,0c1,0 1.81,0 2.63,0c1.22,0 2.02,0 3.04,0c0.87,0 1.75,0 2.65,0l0.8,0l0.91,0" fill="none" id="svg_4" stroke="#000000"/>
 </g>
</svg>